<svg width="48" height="48" viewBox="0 0 48 48" fill="none" xmlns="http://www.w3.org/2000/svg">
  <path d="M7.33163 19.8979C6.36399 19.8979 5.88017 19.8979 5.78747 19.6277C5.69476 19.3575 6.07667 19.0605 6.84048 18.4664L16.6327 10.8502C20.1718 8.0976 21.9414 6.72129 24 6.72129C26.0586 6.72129 27.8282 8.0976 31.3673 10.8502L41.1595 18.4664C41.9233 19.0605 42.3052 19.3575 42.2125 19.6277C42.1198 19.8979 41.636 19.8979 40.6684 19.8979H39.5778C39.2007 19.8979 39.0121 19.8979 38.8949 20.0151C38.7778 20.1322 38.7778 20.3208 38.7778 20.6979V26.2312C38.7778 32.5927 38.7778 35.7734 37.0711 37.948C36.6755 38.4521 36.2208 38.9068 35.7168 39.3023C33.5422 41.009 30.3614 41.009 24 41.009V41.009C17.6386 41.009 14.4578 41.009 12.2832 39.3023C11.7792 38.9068 11.3245 38.4521 10.9289 37.948C9.22222 35.7734 9.22222 32.5927 9.22222 26.2312V20.6979C9.22222 20.3208 9.22222 20.1322 9.10507 20.0151C8.98791 19.8979 8.79935 19.8979 8.42222 19.8979H7.33163Z" stroke="#F7F9FC" stroke-width="3" />
</svg>
